<?xml version="1.0" encoding="UTF-8"?>
<svg width="32" height="32" version="1.1" viewBox="0 0 2.4 2.4" xml:space="preserve" xmlns="http://www.w3.org/2000/svg"><path d="m1.2 0c-0.66168 0-1.2 0.53832-1.2 1.2s0.53832 1.2 1.2 1.2 1.2-0.53832 1.2-1.2-0.53832-1.2-1.2-1.2zm-0.42618 0.56016c0.00923 4.05e-4 0.018423 0.002725 0.026367 0.006885l1.1047 0.6c0.014127 0.00744 0.022559 0.019719 0.022559 0.032959s-0.00843 0.025666-0.022559 0.033106l-1.1047 0.6c-0.00875 0.0046-0.018954 0.00688-0.02915 0.00688-0.00828 0-0.01661-0.00142-0.02417-0.00454-0.016976-0.0069168-0.027539-0.020606-0.027539-0.035446v-1.2c0-0.01484 0.010615-0.028383 0.027539-0.035303 0.00849-0.00346 0.017721-0.004946 0.026953-0.004541z" stroke-width="0"/></svg>
