<?xml version="1.0" encoding="UTF-8"?>
<svg width="32" height="32" version="1.1" viewBox="0 0 2.4 2.4" xml:space="preserve" xmlns="http://www.w3.org/2000/svg"><path d="m1.2 0c-0.66168 0-1.2 0.53832-1.2 1.2s0.53832 1.2 1.2 1.2 1.2-0.53832 1.2-1.2-0.53832-1.2-1.2-1.2z" stroke-width=".6"/><path d="m1.8225 1.167-0.88-0.6c-0.01228-0.00832-0.02812-0.00924-0.04124-0.00232-0.01308 0.00692-0.02128 0.02052-0.02128 0.03536v1.2c0 0.01484 0.0082 0.02844 0.02132 0.03536 0.00584 0.00312 0.01228 0.00464 0.01868 0.00464 0.00788 0 0.01576-0.00236 0.02252-0.00696l0.88-0.6c0.01092-0.00744 0.01748-0.0198 0.01748-0.03304s-0.00656-0.0256-0.01748-0.03304z" fill="#fff" stroke-width=".6"/></svg>
